<svg id="Layer_1" data-name="Layer 1" xmlns="http://www.w3.org/2000/svg" viewBox="0 0 332.25 384"><defs><style>.cls-1{fill:#fff;}</style></defs><title>information</title><path class="cls-1" d="M589.28,549.92c-8.34-38.33-27.5-70.2-58-95.06a163.78,163.78,0,0,0-75.53-34.55c-5.89-1.07-11.89-.7-17.79-1.56H413.25c-4,.88-8.15.46-12.2,1.1-40.65,6.5-74.44,25.5-101.05,56.74-24.29,28.52-37,62-39.12,99.33a158.14,158.14,0,0,0,4.46,46.46,166.4,166.4,0,0,0,104.54,117A19.18,19.18,0,0,1,380,747c10.65,16.17,21.69,32.09,32.5,48.16,2.81,4.19,6.11,7.12,11.26,7.55h6c5.16-.43,8.57-3.27,11.25-7.55,3.65-5.82,7.79-11.33,11.59-17.05,6.7-10.1,13.82-19.93,20.28-30.18a20.31,20.31,0,0,1,10.82-8.58A164.5,164.5,0,0,0,554,690c24-28.53,36.45-61.68,38.62-98.74A152.71,152.71,0,0,0,589.28,549.92ZM466.22,712.61a23,23,0,0,0-13.42,9.89c-8.4,12.81-17.14,25.4-26.05,38.52-9.12-13.44-18-26.28-26.57-39.28a21.69,21.69,0,0,0-12-8.92c-52.52-17.36-84.81-53.2-94.56-107.58-12-66.8,30.82-133.15,96.06-151.25,73.74-20.47,148.34,22.26,167.76,96.1C575.69,619.36,534.85,692.22,466.22,712.61Z" transform="translate(-260.65 -418.75)"/><path class="cls-1" d="M410.37,606.27c0-13,.08-26,0-39,0-4.59,2-7.72,6-9.39a25.56,25.56,0,0,1,21.4.38,9,9,0,0,1,5.54,8.9q-.15,38.94,0,77.9a8.92,8.92,0,0,1-3.82,7.66c-6.53,4.94-18,5.24-24.71.6a9.56,9.56,0,0,1-4.45-8.52C410.44,632,410.37,619.12,410.37,606.27Z" transform="translate(-260.65 -418.75)"/><path class="cls-1" d="M426.57,536.36c-8.83-.09-16.61-6.55-17.1-14.2-.59-9.21,8.25-17,18.4-16.11a22.61,22.61,0,0,1,4.4.82c7.56,2.28,12.56,9.18,11.57,15.85C442.7,530.45,435.1,536.45,426.57,536.36Z" transform="translate(-260.65 -418.75)"/></svg>